<?xml version="1.0" encoding="iso-8859-1"?>
<!-- Generator: Adobe Illustrator 19.0.0, SVG Export Plug-In . SVG Version: 6.00 Build 0)  -->
<svg version="1.1" id="Capa_1" xmlns="http://www.w3.org/2000/svg" xmlns:xlink="http://www.w3.org/1999/xlink" x="0px" y="0px"
	 viewBox="0 0 502.686 502.686" style="enable-background:new 0 0 502.686 502.686;" xml:space="preserve">
    <g>
        <g>
            <g>
                <path style="fill:#010002;" d="M502.686,260.467c0-84.752-64.712-154.339-147.415-162.191V7.614H0v487.457h355.271V422.68
                    C437.973,414.806,502.686,345.219,502.686,260.467z M339.718,395.759c-74.721,0-135.27-60.592-135.27-135.292
                    s60.571-135.27,135.27-135.27s135.292,60.571,135.292,135.27S414.439,395.759,339.718,395.759z"/>
                <path style="fill:#010002;" d="M339.697,189.111c-39.41,0-71.356,31.925-71.356,71.356s31.925,71.356,71.356,71.356
                    s71.378-31.925,71.378-71.356S379.107,189.111,339.697,189.111z M339.697,284.519c-13.266,0-24.051-10.764-24.051-24.051
                    c0-13.266,10.785-24.051,24.051-24.051c13.288,0,24.051,10.785,24.051,24.051C363.748,273.755,352.984,284.519,339.697,284.519z"
                    />
            </g>
        </g>
    <g>
</svg>
