<?xml version="1.0" encoding="iso-8859-1"?>
<!-- Generator: Adobe Illustrator 16.0.0, SVG Export Plug-In . SVG Version: 6.00 Build 0)  -->
<!DOCTYPE svg PUBLIC "-//W3C//DTD SVG 1.1//EN" "http://www.w3.org/Graphics/SVG/1.1/DTD/svg11.dtd">
<svg version="1.1" id="Capa_1" xmlns="http://www.w3.org/2000/svg" xmlns:xlink="http://www.w3.org/1999/xlink" x="0px" y="0px"
	 width="83.818px" height="83.818px" viewBox="0 0 83.818 83.818" style="enable-background:new 0 0 83.818 83.818;"
	 xml:space="preserve">
<g>
	<g>
		<rect x="41.047" y="44.368" width="0.334" height="0.333"/>
		<path d="M37.006,38.618h-1.625v11.5h11.5v-11.5h-1.625H37.006z M43.381,45.701c0,0.553-0.446,1-1,1h-0.25v1c0,0.553-0.447,1-1,1
			s-1-0.447-1-1v-1h-0.084c-0.553,0-1-0.447-1-1v-2.333c0-0.554,0.447-1,1-1h2.334c0.554,0,1,0.446,1,1V45.701z"/>
		<path d="M68.036,39.256c-0.256-0.141-0.438-0.386-0.498-0.671c-0.543-2.572-2.32-4.713-4.754-5.726
			c-0.397-0.165-0.646-0.565-0.613-0.994c0.023-0.324,0.042-0.575,0.042-0.831c0-6.341-5.159-11.5-11.5-11.5
			c-4.962,0-9.347,3.168-10.91,7.883c-0.119,0.358-0.429,0.619-0.802,0.675c-0.369,0.052-0.745-0.104-0.963-0.411
			c-0.768-1.082-2.011-1.729-3.325-1.729c-1.586,0-3.04,0.938-3.704,2.392c-0.115,0.255-0.333,0.448-0.599,0.535
			c-0.264,0.087-0.556,0.059-0.799-0.077c-1.189-0.666-2.538-1.018-3.898-1.018c-4.411,0-8,3.589-8,8
			c0,0.452,0.044,0.915,0.135,1.416c0.048,0.266-0.014,0.54-0.171,0.76c-0.157,0.22-0.397,0.366-0.665,0.407
			c-3.886,0.585-6.816,3.988-6.816,7.917c0,4.422,3.597,8.02,8.018,8.02c0.059,0,0.115-0.005,0.172-0.009l0.158-0.01l45.67-0.001
			c4.411,0,8-3.589,8-8C72.213,43.355,70.612,40.662,68.036,39.256z M48.881,51.118c0,0.553-0.446,1-1,1h-13.5c-0.553,0-1-0.447-1-1
			v-13.5c0-0.553,0.447-1,1-1h1.625v-3.75c0-0.553,0.447-1,1-1h8.25c0.554,0,1,0.447,1,1v1.916c0,0.553-0.446,1-1,1s-1-0.447-1-1
			v-0.916h-6.25v2.75h7.25h2.625c0.554,0,1,0.447,1,1V51.118z"/>
		<path d="M41.909,0C18.764,0,0.001,18.764,0.001,41.91c0,23.145,18.764,41.908,41.908,41.908c23.146,0,41.909-18.765,41.909-41.908
			C83.817,18.764,65.055,0,41.909,0z M64.213,56.284L18.525,56.29c-0.104,0.007-0.206,0.014-0.312,0.014
			c-5.523,0-10.018-4.495-10.018-10.02c0-4.578,3.185-8.587,7.553-9.7c-0.023-0.27-0.035-0.535-0.035-0.8c0-5.514,4.486-10,10-10
			c1.37,0,2.729,0.285,3.983,0.83c1.121-1.644,2.996-2.662,5.017-2.662c1.389,0,2.724,0.482,3.79,1.335
			c2.203-4.696,6.928-7.753,12.21-7.753c7.444,0,13.5,6.056,13.5,13.5c0,0.094-0.002,0.187-0.005,0.28
			c2.568,1.292,4.46,3.627,5.183,6.413c2.986,1.81,4.822,5.048,4.822,8.557C74.213,51.798,69.726,56.284,64.213,56.284z"/>
	</g>
</g>
</svg>
